<?xml version="1.0" encoding="UTF-8" standalone="no"?>
<svg
   xmlns:dc="http://purl.org/dc/elements/1.1/"
   xmlns:cc="http://creativecommons.org/ns#"
   xmlns:rdf="http://www.w3.org/1999/02/22-rdf-syntax-ns#"
   xmlns:svg="http://www.w3.org/2000/svg"
   xmlns="http://www.w3.org/2000/svg"
   xmlns:xlink="http://www.w3.org/1999/xlink"
   xmlns:sodipodi="http://sodipodi.sourceforge.net/DTD/sodipodi-0.dtd"
   xmlns:inkscape="http://www.inkscape.org/namespaces/inkscape"
   width="50"
   height="26"
   id="svg7539"
   version="1.1"
   inkscape:version="1.0 (4035a4f, 2020-05-01)"
   sodipodi:docname="switch-on.svg">
  <defs
     id="defs7541">
    <linearGradient
       id="linearGradient886">
      <stop
         style="stop-color:#313131;stop-opacity:1"
         offset="0"
         id="stop884" />
      <stop
         style="stop-color:#323232;stop-opacity:1"
         offset="1"
         id="stop882" />
    </linearGradient>
    <linearGradient
       id="linearGradient4695-1-4-3-5-0-6">
      <stop
         id="stop4697-9-9-7-0-1-5"
         style="stop-color:#000000;stop-opacity:1;"
         offset="0" />
      <stop
         id="stop4699-5-8-9-0-4-0"
         style="stop-color:#000000;stop-opacity:0"
         offset="1" />
    </linearGradient>
    <linearGradient
       id="linearGradient3768-6">
      <stop
         style="stop-color:#0f0f0f;stop-opacity:1;"
         offset="0"
         id="stop3770-0" />
      <stop
         id="stop3778-6"
         offset="0.078125"
         style="stop-color:#171717;stop-opacity:1;" />
      <stop
         style="stop-color:#171717;stop-opacity:1;"
         offset="0.97355771"
         id="stop3774-2" />
      <stop
         style="stop-color:#1b1b1b;stop-opacity:1;"
         offset="1"
         id="stop3776-2" />
    </linearGradient>
    <linearGradient
       id="linearGradient3969-0-4">
      <stop
         style="stop-color:#353537;stop-opacity:1;"
         offset="0"
         id="stop3971-2-6" />
      <stop
         style="stop-color:#4d4f52;stop-opacity:1;"
         offset="1"
         id="stop3973-0-1" />
    </linearGradient>
    <linearGradient
       id="linearGradient3938">
      <stop
         id="stop3940"
         offset="0"
         style="stop-color:#ffffff;stop-opacity:0;" />
      <stop
         id="stop3942"
         offset="1"
         style="stop-color:#ffffff;stop-opacity:0.54901963;" />
    </linearGradient>
    <linearGradient
       id="linearGradient6523">
      <stop
         id="stop6525"
         offset="0"
         style="stop-color:#1a1a1a;stop-opacity:1;" />
      <stop
         id="stop6527"
         offset="1"
         style="stop-color:#1a1a1a;stop-opacity:0;" />
    </linearGradient>
    <linearGradient
       id="linearGradient3938-6">
      <stop
         id="stop3940-4"
         offset="0"
         style="stop-color:#bebebe;stop-opacity:1;" />
      <stop
         id="stop3942-8"
         offset="1"
         style="stop-color:#ffffff;stop-opacity:1;" />
    </linearGradient>
    <linearGradient
       inkscape:collect="always"
       xlink:href="#linearGradient886"
       id="linearGradient884"
       x1="1042"
       y1="382"
       x2="1042"
       y2="358"
       gradientUnits="userSpaceOnUse" />
    <linearGradient
       id="actual-button-gradient-dark">
      <stop
         style="stop-color:#323232;stop-opacity:1"
         offset="0"
         id="stop1811" />
      <stop
         style="stop-color:#313131;stop-opacity:1"
         offset="1"
         id="stop1817" />
    </linearGradient>
  </defs>
  <sodipodi:namedview
     id="base"
     pagecolor="#ffffff"
     bordercolor="#666666"
     borderopacity="1.0"
     inkscape:pageopacity="0.0"
     inkscape:pageshadow="2"
     inkscape:zoom="11.313708"
     inkscape:cx="19.472296"
     inkscape:cy="8.7924839"
     inkscape:current-layer="switch-active-2"
     showgrid="false"
     inkscape:grid-bbox="true"
     inkscape:document-units="px"
     fit-margin-top="0"
     fit-margin-left="0"
     fit-margin-right="0"
     fit-margin-bottom="0"
     inkscape:window-width="1366"
     inkscape:window-height="700"
     inkscape:window-x="0"
     inkscape:window-y="0"
     inkscape:window-maximized="1"
     inkscape:snap-bbox="true"
     showguides="true"
     inkscape:guide-bbox="true"
     inkscape:snap-bbox-midpoints="false"
     inkscape:bbox-paths="true"
     inkscape:bbox-nodes="true"
     inkscape:snap-bbox-edge-midpoints="true"
     inkscape:document-rotation="0">
    <inkscape:grid
       type="xygrid"
       id="grid3019"
       empspacing="5"
       visible="true"
       enabled="true"
       snapvisiblegridlinesonly="true"
       originx="-4"
       originy="2.6171874e-06" />
  </sodipodi:namedview>
  <metadata
     id="metadata7544">
    <rdf:RDF>
      <cc:Work
         rdf:about="">
        <dc:format>image/svg+xml</dc:format>
        <dc:type
           rdf:resource="http://purl.org/dc/dcmitype/StillImage" />
        <dc:title />
      </cc:Work>
    </rdf:RDF>
  </metadata>
  <g
     id="layer1"
     inkscape:label="Layer 1"
     inkscape:groupmode="layer"
     transform="translate(-120,87.999997)">
    <g
       transform="matrix(1,0,0,1.0833333,-886,-475.83332)"
       style="display:inline;opacity:1"
       id="switch-active-2"
       inkscape:label="#g4829">
      <path
         id="path3759-0-7"
         style="display:inline;opacity:1;fill:#006aff;fill-opacity:1;fill-rule:nonzero;stroke:none;stroke-width:1.38779;stroke-opacity:0.19"
         d="m 1032,370 a 13,12 0 0 1 -13,12 13,12 0 0 1 -13,-12 13,12 0 0 1 13,-12 13,12 0 0 1 13,12 m 24,0 a 13,12 0 0 1 -13,12 13,12 0 0 1 -13,-12 13,12 0 0 1 13,-12 13,12 0 0 1 13,12 m -37,-12 h 25 v 24 h -25 z" />
      <path
         id="path3759-0-7-0"
         style="display:inline;opacity:1;fill:none;fill-opacity:1;fill-rule:nonzero;stroke:#000000;stroke-width:0.960743;stroke-miterlimit:4;stroke-dasharray:none;stroke-opacity:0.19"
         d="m 1019.1254,358.48065 a 12.750209,11.519448 0 0 0 -12.645,11.51944 12.750209,11.519448 0 0 0 12.7503,11.51944 12.750209,11.519448 0 0 0 0.1055,0 h 23.4333 0.1053 0.8754 v -0.033 A 12.750209,11.519448 0 0 0 1055.5197,370 12.750209,11.519448 0 0 0 1043.7502,358.51517 v -0.0347 h -0.9807 -0.1055 -23.4333 a 12.750209,11.519448 0 0 0 -0.1053,0 z" />
      <path
         style="display:inline;opacity:1;fill:url(#linearGradient884);fill-opacity:1.0;fill-rule:nonzero;stroke:none;stroke-width:1.38779;stroke-opacity:0.19"
         d="m 1056,370 a 13,12 0 0 1 -13,12 13,12 0 0 1 -13,-12 13,12 0 0 1 13,-12 13,12 0 0 1 13,12"
         id="path3759-0" />
      <path
         id="path3759-0-5"
         d="M 1055.5196,370 A 12.519565,11.519636 0 0 1 1043,381.51965 12.519565,11.519636 0 0 1 1030.4804,370 12.519565,11.519636 0 0 1 1043,358.48037 12.519565,11.519636 0 0 1 1055.5196,370"
         style="display:inline;opacity:1;fill:none;fill-opacity:1;fill-rule:nonzero;stroke:#0056cf;stroke-width:0.960715;stroke-miterlimit:4;stroke-dasharray:none;stroke-opacity:1" />
    </g>
  </g>
</svg>
