<?xml version="1.0" encoding="UTF-8" standalone="no"?>
<!-- Created with Inkscape (http://www.inkscape.org/) -->

<svg
   xmlns:dc="http://purl.org/dc/elements/1.1/"
   xmlns:cc="http://creativecommons.org/ns#"
   xmlns:rdf="http://www.w3.org/1999/02/22-rdf-syntax-ns#"
   xmlns:svg="http://www.w3.org/2000/svg"
   xmlns="http://www.w3.org/2000/svg"
   xmlns:sodipodi="http://sodipodi.sourceforge.net/DTD/sodipodi-0.dtd"
   xmlns:inkscape="http://www.inkscape.org/namespaces/inkscape"
   id="svg2"
   version="1.1"
   inkscape:version="0.92.3 (2405546, 2018-03-11)"
   width="21"
   height="21"
   viewBox="0 0 21 21"
   sodipodi:docname="menu-icon.svg">
  <metadata
     id="metadata8">
    <rdf:RDF>
      <cc:Work
         rdf:about="">
        <dc:format>image/svg+xml</dc:format>
        <dc:type
           rdf:resource="http://purl.org/dc/dcmitype/StillImage" />
        <dc:title />
      </cc:Work>
    </rdf:RDF>
  </metadata>
  <defs
     id="defs6" />
  <sodipodi:namedview
     pagecolor="#ffffff"
     bordercolor="#666666"
     borderopacity="1"
     objecttolerance="10"
     gridtolerance="10"
     guidetolerance="10"
     inkscape:pageopacity="0"
     inkscape:pageshadow="2"
     inkscape:window-width="1366"
     inkscape:window-height="698"
     id="namedview4"
     showgrid="false"
     inkscape:zoom="2.8195939"
     inkscape:cx="-58.46972"
     inkscape:cy="41.140676"
     inkscape:window-x="0"
     inkscape:window-y="0"
     inkscape:window-maximized="1"
     inkscape:current-layer="svg2" />
  <g
     id="g4138"
     style="fill:#7d7d7d;fill-opacity:1"
     transform="scale(0.25089607,0.25089607)">
    <path
       style="fill:#7d7d7d;fill-opacity:1"
       d="m 37.414285,68.785711 c -0.777858,-0.777856 -1.414286,-2.387456 -1.414286,-3.576887 0,-1.481738 -0.831236,-2.59245 -2.640219,-3.527912 -2.501768,-1.293715 -2.784064,-1.244273 -5.383297,0.942837 -3.164183,2.662484 -5.389709,2.364641 -8.102718,-1.08439 -1.928041,-2.451107 -1.67733,-4.207514 1.030949,-7.222521 1.630937,-1.815649 1.648733,-2.10287 0.292777,-4.725 -1.117873,-2.161727 -2.040738,-2.79184 -4.088938,-2.79184 -1.694144,0 -2.9802,-0.625909 -3.576888,-1.740833 -2.312619,-4.321168 0.07589,-9.059166 4.566887,-9.059166 3.300914,0 4.874772,-4.578835 2.510759,-7.304565 -2.211182,-2.549514 -2.175112,-5.729634 0.09069,-7.995435 2.296815,-2.296814 5.208517,-2.293653 7.658848,0.0083 1.654616,1.554431 2.326135,1.668427 4.783006,0.811958 2.303091,-0.80283 2.858146,-1.491083 2.858146,-3.543995 0,-3.257761 2.127843,-5.376242 5.4,-5.376242 3.272156,0 5.399999,2.118481 5.399999,5.376242 0,2.052912 0.555056,2.741165 2.858146,3.544027 2.456871,0.85647 3.12839,0.742473 4.783006,-0.811957 2.450331,-2.301966 5.362033,-2.305127 7.658848,-0.0083 2.249891,2.249891 2.30394,5.478249 0.13653,8.154887 -2.352232,2.904883 -0.796639,7.145113 2.621295,7.145113 4.337775,0 6.681954,4.814934 4.410509,9.059166 -0.596688,1.114924 -1.882744,1.740833 -3.576888,1.740833 -2.0482,0 -2.971065,0.630113 -4.088938,2.79184 -1.355956,2.62213 -1.33816,2.909351 0.292777,4.725 2.708279,3.015007 2.95899,4.771414 1.030949,7.222521 -2.713009,3.449031 -4.938535,3.746874 -8.102718,1.08439 C 52.224283,60.436672 51.941987,60.38723 49.44022,61.680945 47.631236,62.616407 46.8,63.727119 46.8,65.208857 c 0,2.90113 -2.261239,4.991173 -5.399999,4.991173 -1.414287,0 -3.207858,-0.636428 -3.985714,-1.414286 z m 10.758667,-16.5999 c 8.172268,-5.050738 7.392229,-17.309068 -1.390893,-21.857939 -10.543041,-5.46035 -22.084357,6.62351 -16.40706,17.178337 3.373719,6.272179 11.685178,8.457505 17.797953,4.679602 z"
       id="path4156"
       inkscape:connector-curvature="0" />
    <path
       style="fill:#7d7d7d;fill-opacity:1"
       d="m 38.000254,68.798964 c -1.263483,-0.884978 -2.000255,-2.336533 -2.000255,-3.940812 0,-1.980717 -0.602085,-2.789169 -2.735233,-3.672749 -2.440523,-1.010897 -2.955873,-0.92569 -4.783007,0.790812 -2.565345,2.410017 -5.449646,2.455897 -7.78176,0.123783 -2.332114,-2.332114 -2.286234,-5.216415 0.123783,-7.78176 1.716502,-1.827134 1.801709,-2.342484 0.790812,-4.783007 -0.88358,-2.133148 -1.692032,-2.735233 -3.672749,-2.735233 -2.71016,0 -5.341845,-2.758993 -5.341845,-5.600255 0,-2.281014 3.222443,-5.199744 5.740811,-5.199744 1.53628,0 2.460745,-0.772387 3.273783,-2.735233 1.010897,-2.440523 0.92569,-2.955873 -0.790812,-4.783007 -2.49134,-2.651908 -2.438454,-5.184486 0.159223,-7.624877 2.608009,-2.450098 4.229444,-2.464087 7.282152,-0.06283 2.095226,1.648105 2.747216,1.753508 5.020935,0.811703 1.974444,-0.817841 2.680345,-1.768742 2.88847,-3.89098 0.192799,-1.965971 1.017996,-3.222083 2.750437,-4.186704 2.222411,-1.237435 2.727588,-1.237435 4.949999,0 1.732441,0.964621 2.557638,2.220733 2.750437,4.186704 0.208125,2.122238 0.914026,3.073139 2.88847,3.89098 2.273719,0.941805 2.925709,0.836402 5.020935,-0.811703 3.102234,-2.440218 4.983375,-2.39224 7.408275,0.188949 2.471318,2.630597 2.481304,4.892761 0.0331,7.498753 -1.716502,1.827134 -1.801709,2.342484 -0.790812,4.783007 0.813036,1.96285 1.737501,2.735237 3.273781,2.735237 2.518368,0 5.740811,2.91873 5.740811,5.199744 0,2.841262 -2.631685,5.600255 -5.341845,5.600255 -1.980717,0 -2.789169,0.602085 -3.672749,2.735233 -1.010897,2.440523 -0.92569,2.955873 0.790812,4.783007 2.410017,2.565345 2.455897,5.449646 0.123783,7.78176 -2.332114,2.332114 -5.216415,2.286234 -7.78176,-0.123783 -1.827134,-1.716502 -2.342484,-1.801709 -4.783007,-0.790812 -2.133148,0.88358 -2.735233,1.692032 -2.735233,3.672749 0,2.631925 -2.739422,5.341845 -5.399999,5.341845 -0.769719,0 -2.299604,-0.630465 -3.399745,-1.401033 z M 48.429157,52.176927 c 3.798546,-2.31591 5.902402,-7.21221 5.319825,-12.38082 -0.676401,-6.001005 -6.286063,-10.996108 -12.348983,-10.996108 -8.977864,0 -14.995355,9.624921 -11.398904,18.23244 2.719171,6.507892 11.960381,9.087724 18.428062,5.144488 z"
       id="path4154"
       inkscape:connector-curvature="0" />
    <path
       style="fill:#7d7d7d;fill-opacity:1"
       d="m 39.373169,69.087895 c -1.617897,-0.548122 -2.658318,-1.671196 -3.000171,-3.238507 -0.924268,-4.237548 -1.105539,-4.46959 -3.985842,-5.102211 -2.205504,-0.484409 -3.280339,-0.203679 -4.843818,1.265134 -2.589474,2.432683 -4.263515,2.383783 -6.686456,-0.195319 -2.432715,-2.589507 -2.475869,-4.368341 -0.156883,-6.466994 3.360453,-3.041167 1.671423,-8.55 -2.621465,-8.55 -2.973199,0 -4.621294,-1.645624 -4.987296,-4.97982 -0.308985,-2.814779 2.775053,-6.117383 5.135994,-5.499983 1.795884,0.469635 4.272767,-2.487477 4.272767,-5.101189 0,-0.924264 -0.871055,-2.385818 -1.935678,-3.247897 -2.461138,-1.99291 -1.730688,-5.696427 1.54711,-7.844124 2.166042,-1.419244 2.416734,-1.3968 4.899268,0.438616 1.439027,1.063919 3.266938,1.934398 4.062024,1.934398 2.52416,0 4.927276,-1.800082 4.927276,-3.690832 0,-3.667217 1.663408,-5.309167 5.37855,-5.309167 3.804468,0 4.511033,0.637505 5.371945,4.846895 0.822192,4.02007 5.095803,5.133893 8.901739,2.320043 2.5985,-1.921155 2.878931,-1.953536 4.982362,-0.575314 3.277316,2.14738 3.808598,4.831517 1.558671,7.874706 -1.041298,1.408431 -1.893268,3.094567 -1.893268,3.74697 0,2.192971 2.635861,5.034956 4.272767,4.606895 1.917691,-0.501487 5.627232,2.738283 5.627232,4.914608 0,2.850375 -2.643682,5.565195 -5.419367,5.565195 -4.349774,0 -6.069004,5.483565 -2.680632,8.55 2.363122,2.138596 2.27507,4.189929 -0.283006,6.593117 -2.604876,2.447154 -4.013299,2.462009 -6.560333,0.06919 -1.563479,-1.468812 -2.638314,-1.749543 -4.843818,-1.265133 -2.870983,0.630573 -3.066589,0.878331 -3.966094,5.023525 -0.643785,2.966763 -3.774437,4.434898 -7.073578,3.317193 z m 9.465409,-17.092436 c 7.333937,-5.120094 6.656843,-17.340427 -1.194077,-21.550922 -8.676567,-4.653293 -18.844502,1.395892 -18.844502,11.211114 0,10.545839 11.352672,16.403762 20.038579,10.339808 z"
       id="path4152"
       inkscape:connector-curvature="0" />
    <path
       style="fill:#7d7d7d;fill-opacity:1"
       d="m 37.401032,67.299742 c -0.770568,-1.100141 -1.401033,-2.705891 -1.401033,-3.568334 0,-3.388711 -5.934842,-4.521127 -8.55,-1.63141 -2.138596,2.363122 -4.189929,2.27507 -6.593117,-0.283006 -2.432715,-2.589507 -2.475869,-4.368341 -0.156883,-6.466994 3.163078,-2.862546 1.688079,-8.55 -2.217379,-8.55 -2.857184,0 -4.98262,-2.254117 -4.98262,-5.284286 0,-3.09511 1.494189,-4.615713 4.535536,-4.615713 1.672229,0 2.684763,-0.678678 3.42,-2.292348 1.470261,-3.226873 1.309475,-4.698459 -0.755537,-6.914989 -2.406605,-2.583188 -2.281123,-3.494954 0.900513,-6.543154 l 2.700513,-2.587255 2.663043,1.968873 c 1.464675,1.08288 3.313569,1.968873 4.108655,1.968873 2.395172,0 4.927276,-1.763385 4.927276,-3.43141 0,-2.843357 2.642725,-5.568589 5.4,-5.568589 2.757274,0 5.399999,2.725232 5.399999,5.568589 0,1.668025 2.532104,3.43141 4.927276,3.43141 0.795086,0 2.64398,-0.885993 4.108655,-1.968873 l 2.663043,-1.968873 2.700513,2.587255 c 3.181636,3.0482 3.307118,3.959966 0.900513,6.543154 -2.065012,2.21653 -2.225798,3.688116 -0.755537,6.914989 0.735237,1.61367 1.747771,2.292348 3.42,2.292348 3.019946,0 4.535537,1.517253 4.535537,4.54051 0,2.797156 -2.492873,5.359489 -5.214202,5.359489 -3.698034,0 -5.041545,5.784587 -1.985798,8.55 2.363122,2.138596 2.27507,4.189929 -0.283006,6.593117 -2.589507,2.432715 -4.368341,2.475869 -6.466994,0.156883 -2.615158,-2.889717 -8.55,-1.757301 -8.55,1.63141 0,2.843357 -2.642725,5.56859 -5.399999,5.56859 -1.664374,0 -3.10139,-0.718786 -3.998967,-2.000256 z m 7.749927,-13.326623 c 1.851736,-0.51432 4.518849,-2.303941 6.075,-4.076297 2.34177,-2.667129 2.773515,-3.890858 2.770675,-7.85314 -0.0056,-7.876251 -5.110841,-13.243683 -12.596635,-13.243683 -7.485795,0 -12.59099,5.367432 -12.596636,13.243683 -0.0029,3.968602 0.427858,5.184819 2.78808,7.872962 2.394559,2.727252 5.997899,4.612816 9.358556,4.897166 0.495,0.04189 2.385431,-0.336429 4.20096,-0.840691 z"
       id="path4150"
       inkscape:connector-curvature="0" />
    <path
       style="fill:#7d7d7d;fill-opacity:1"
       d="m 37.401032,67.299742 c -0.770568,-1.100141 -1.401033,-2.705891 -1.401033,-3.568334 0,-3.388711 -5.934842,-4.521127 -8.55,-1.63141 -2.138596,2.363122 -4.189929,2.27507 -6.593117,-0.283006 -2.432715,-2.589507 -2.475869,-4.368341 -0.156883,-6.466994 3.163078,-2.862546 1.688079,-8.55 -2.217379,-8.55 -2.857184,0 -4.98262,-2.254117 -4.98262,-5.284286 0,-3.09511 1.494189,-4.615713 4.535536,-4.615713 1.672229,0 2.684763,-0.678678 3.42,-2.292348 1.470261,-3.226873 1.309475,-4.698459 -0.755537,-6.914989 -2.406605,-2.583188 -2.281123,-3.494954 0.900513,-6.543154 l 2.700513,-2.587255 2.663043,1.968873 c 1.464675,1.08288 3.313569,1.968873 4.108655,1.968873 2.395172,0 4.927276,-1.763385 4.927276,-3.43141 0,-2.843357 2.642725,-5.568589 5.4,-5.568589 2.757274,0 5.399999,2.725232 5.399999,5.568589 0,1.668025 2.532104,3.43141 4.927276,3.43141 0.795086,0 2.64398,-0.885993 4.108655,-1.968873 l 2.663043,-1.968873 2.700513,2.587255 c 3.181636,3.0482 3.307118,3.959966 0.900513,6.543154 -2.065012,2.21653 -2.225798,3.688116 -0.755537,6.914989 0.735237,1.61367 1.747771,2.292348 3.42,2.292348 3.019946,0 4.535537,1.517253 4.535537,4.54051 0,2.797156 -2.492873,5.359489 -5.214202,5.359489 -3.698034,0 -5.041545,5.784587 -1.985798,8.55 2.363122,2.138596 2.27507,4.189929 -0.283006,6.593117 -2.589507,2.432715 -4.368341,2.475869 -6.466994,0.156883 -2.615158,-2.889717 -8.55,-1.757301 -8.55,1.63141 0,2.843357 -2.642725,5.56859 -5.399999,5.56859 -1.664374,0 -3.10139,-0.718786 -3.998967,-2.000256 z M 48.466471,52.435301 c 4.201727,-3.137041 5.741219,-6.054285 5.741219,-10.879256 0,-7.635917 -5.140859,-12.756046 -12.807691,-12.756046 -8.663497,0 -13.094194,5.394142 -12.695367,15.455947 0.117858,2.973351 4.032404,7.764461 7.700747,9.425133 3.444172,1.559188 9.084445,0.97661 12.061092,-1.245778 z"
       id="path4148"
       inkscape:connector-curvature="0" />
    <path
       style="fill:#7d7d7d;fill-opacity:1"
       d="m 37.401032,67.299742 c -0.770568,-1.100141 -1.401033,-2.705891 -1.401033,-3.568334 0,-3.388711 -5.934842,-4.521127 -8.55,-1.63141 -2.138596,2.363122 -4.189929,2.27507 -6.593117,-0.283006 -2.432715,-2.589507 -2.475869,-4.368341 -0.156883,-6.466994 3.163078,-2.862546 1.688079,-8.55 -2.217379,-8.55 -2.857184,0 -4.98262,-2.254117 -4.98262,-5.284286 0,-3.09511 1.494189,-4.615713 4.535536,-4.615713 1.672229,0 2.684763,-0.678678 3.42,-2.292348 1.470261,-3.226873 1.309475,-4.698459 -0.755537,-6.914989 -2.406605,-2.583188 -2.281123,-3.494954 0.900513,-6.543154 l 2.700513,-2.587255 2.663043,1.968873 c 1.464675,1.08288 3.313569,1.968873 4.108655,1.968873 2.395172,0 4.927276,-1.763385 4.927276,-3.43141 0,-2.843357 2.642725,-5.568589 5.4,-5.568589 2.757274,0 5.399999,2.725232 5.399999,5.568589 0,1.668025 2.532104,3.43141 4.927276,3.43141 0.795086,0 2.64398,-0.885993 4.108655,-1.968873 l 2.663043,-1.968873 2.700513,2.587255 c 3.181636,3.0482 3.307118,3.959966 0.900513,6.543154 -2.065012,2.21653 -2.225798,3.688116 -0.755537,6.914989 0.735237,1.61367 1.747771,2.292348 3.42,2.292348 3.019946,0 4.535537,1.517253 4.535537,4.54051 0,2.797156 -2.492873,5.359489 -5.214202,5.359489 -3.698034,0 -5.041545,5.784587 -1.985798,8.55 2.363122,2.138596 2.27507,4.189929 -0.283006,6.593117 -2.589507,2.432715 -4.368341,2.475869 -6.466994,0.156883 -2.615158,-2.889717 -8.55,-1.757301 -8.55,1.63141 0,2.843357 -2.642725,5.56859 -5.399999,5.56859 -1.664374,0 -3.10139,-0.718786 -3.998967,-2.000256 z M 47.356707,53.43904 c 4.697862,-2.229281 7.029005,-6.126414 7.029005,-11.750872 0,-7.887337 -5.183962,-13.128169 -12.985713,-13.128169 -5.001588,0 -7.861813,1.522982 -11.162247,5.943555 -2.645836,3.543809 -2.524201,11.081336 0.235434,14.589645 4.541108,5.773082 10.593056,7.330862 16.883521,4.345841 z"
       id="path4146"
       inkscape:connector-curvature="0" />
    <path
       style="fill:#7d7d7d;fill-opacity:1"
       d="m 37.401032,67.299742 c -0.770568,-1.100141 -1.401033,-2.705891 -1.401033,-3.568334 0,-3.388711 -5.934842,-4.521127 -8.55,-1.63141 -2.138596,2.363122 -4.189929,2.27507 -6.593117,-0.283006 -2.432715,-2.589507 -2.475869,-4.368341 -0.156883,-6.466994 3.163078,-2.862546 1.688079,-8.55 -2.217379,-8.55 -2.857184,0 -4.98262,-2.254117 -4.98262,-5.284286 0,-3.09511 1.494189,-4.615713 4.535536,-4.615713 1.672229,0 2.684763,-0.678678 3.42,-2.292348 1.470261,-3.226873 1.309475,-4.698459 -0.755537,-6.914989 -2.406605,-2.583188 -2.281123,-3.494954 0.900513,-6.543154 l 2.700513,-2.587255 2.663043,1.968873 c 1.464675,1.08288 3.313569,1.968873 4.108655,1.968873 2.395172,0 4.927276,-1.763385 4.927276,-3.43141 0,-2.843357 2.642725,-5.568589 5.4,-5.568589 2.757274,0 5.399999,2.725232 5.399999,5.568589 0,1.668025 2.532104,3.43141 4.927276,3.43141 0.795086,0 2.64398,-0.885993 4.108655,-1.968873 l 2.663043,-1.968873 2.700513,2.587255 c 3.181636,3.0482 3.307118,3.959966 0.900513,6.543154 -2.065012,2.21653 -2.225798,3.688116 -0.755537,6.914989 0.735237,1.61367 1.747771,2.292348 3.42,2.292348 3.019946,0 4.535537,1.517253 4.535537,4.54051 0,2.797156 -2.492873,5.359489 -5.214202,5.359489 -3.698034,0 -5.041545,5.784587 -1.985798,8.55 2.363122,2.138596 2.27507,4.189929 -0.283006,6.593117 -2.589507,2.432715 -4.368341,2.475869 -6.466994,0.156883 -2.615158,-2.889717 -8.55,-1.757301 -8.55,1.63141 0,2.843357 -2.642725,5.56859 -5.399999,5.56859 -1.664374,0 -3.10139,-0.718786 -3.998967,-2.000256 z M 48.691904,52.857058 c 5.618973,-3.753718 7.716874,-11.175075 4.853984,-17.171043 -3.218851,-6.741481 -12.870906,-9.382154 -19.409615,-5.310209 -3.973577,2.474524 -5.330885,4.771652 -5.889752,9.967911 -0.868565,8.075795 4.987389,14.556281 13.153478,14.556281 2.903489,0 5.194705,-0.64192 7.291905,-2.04294 z"
       id="path4144"
       inkscape:connector-curvature="0" />
    <path
       style="fill:#7d7d7d;fill-opacity:1"
       d="m 37.401032,67.299742 c -0.770568,-1.100141 -1.401033,-2.705891 -1.401033,-3.568334 0,-3.388711 -5.934842,-4.521127 -8.55,-1.63141 -2.138596,2.363122 -4.189929,2.27507 -6.593117,-0.283006 -2.432715,-2.589507 -2.475869,-4.368341 -0.156883,-6.466994 3.163078,-2.862546 1.688079,-8.55 -2.217379,-8.55 -2.857184,0 -4.98262,-2.254117 -4.98262,-5.284286 0,-3.09511 1.494189,-4.615713 4.535536,-4.615713 1.672229,0 2.684763,-0.678678 3.42,-2.292348 1.470261,-3.226873 1.309475,-4.698459 -0.755537,-6.914989 -2.406605,-2.583188 -2.281123,-3.494954 0.900513,-6.543154 l 2.700513,-2.587255 2.663043,1.968873 c 1.464675,1.08288 3.313569,1.968873 4.108655,1.968873 2.395172,0 4.927276,-1.763385 4.927276,-3.43141 0,-2.843357 2.642725,-5.568589 5.4,-5.568589 2.757274,0 5.399999,2.725232 5.399999,5.568589 0,1.668025 2.532104,3.43141 4.927276,3.43141 0.795086,0 2.64398,-0.885993 4.108655,-1.968873 l 2.663043,-1.968873 2.700513,2.587255 c 3.181636,3.0482 3.307118,3.959966 0.900513,6.543154 -2.065012,2.21653 -2.225798,3.688116 -0.755537,6.914989 0.735237,1.61367 1.747771,2.292348 3.42,2.292348 3.019946,0 4.535537,1.517253 4.535537,4.54051 0,2.797156 -2.492873,5.359489 -5.214202,5.359489 -3.698034,0 -5.041545,5.784587 -1.985798,8.55 2.363122,2.138596 2.27507,4.189929 -0.283006,6.593117 -2.589507,2.432715 -4.368341,2.475869 -6.466994,0.156883 -2.615158,-2.889717 -8.55,-1.757301 -8.55,1.63141 0,2.843357 -2.642725,5.56859 -5.399999,5.56859 -1.664374,0 -3.10139,-0.718786 -3.998967,-2.000256 z M 48.691904,52.857058 c 5.845678,-3.905167 7.815229,-11.629445 4.531309,-17.771101 -4.752779,-8.88874 -18.89365,-8.88874 -23.646429,0 -4.822967,9.020011 1.617926,19.814041 11.823215,19.814041 2.903489,0 5.194705,-0.64192 7.291905,-2.04294 z"
       id="path4142"
       inkscape:connector-curvature="0" />
    <path
       style="fill:#7d7d7d;fill-opacity:1"
       d="m 38.212992,68.34012 c -0.923457,-1.494185 -0.0946,-1.701382 1.197491,-0.299349 0.638265,0.692575 0.763418,1.259227 0.278115,1.259227 -0.485303,0 -1.149326,-0.431946 -1.475606,-0.959878 z m 5.176522,-0.299349 c 0.638267,-0.692575 1.302289,-1.12452 1.475607,-0.959878 0.533833,0.507113 -0.819125,2.219105 -1.753722,2.219105 -0.485303,0 -0.36015,-0.566652 0.278115,-1.259227 z M 25.199999,62.999998 c 1.17463,-0.759104 1.159717,-0.874228 -0.114799,-0.886219 -0.805641,-0.0076 -1.949002,-0.597208 -2.540802,-1.310284 -0.591801,-0.713077 -1.700628,-1.056812 -2.46406,-0.763855 -1.108065,0.425204 -1.256852,0.09671 -0.737607,-1.628497 0.954889,-3.172654 2.757758,-4.885682 3.639834,-3.458453 0.4515,0.730544 0.328743,0.898724 -0.349864,0.479321 -0.58886,-0.363934 -1.28772,-0.01466 -1.600243,0.799758 -0.747308,1.947455 0.447902,3.003384 1.5192,1.342165 0.666443,-1.033428 0.803819,-0.892017 0.626065,0.644451 -0.125248,1.082614 0.01378,1.892614 0.308951,1.8 0.295171,-0.09261 1.170365,0.357529 1.944875,1.000315 0.850128,0.705543 1.620512,0.825175 1.943933,0.30187 0.294653,-0.476759 0.02695,-1.071951 -0.594875,-1.32265 -0.682079,-0.274988 -0.505781,-0.484005 0.444392,-0.52687 0.86625,-0.03908 1.575,0.271178 1.575,0.689459 0,0.988174 -3.047616,3.743546 -4.120867,3.725707 -0.456023,-0.0076 -0.221633,-0.406378 0.520867,-0.886218 z m 30.289488,-0.745867 c -1.907248,-2.107485 -1.88376,-2.87192 0.08551,-2.783081 0.950173,0.04287 1.126471,0.251882 0.444392,0.52687 -0.621833,0.250699 -0.889527,0.845891 -0.594874,1.32265 0.32342,0.523305 1.093805,0.403673 1.943932,-0.30187 0.774512,-0.642786 1.649706,-1.168702 1.944877,-1.168702 0.295172,0 0.434199,-0.81 0.308951,-1.8 -0.181729,-1.43645 -0.05528,-1.532602 0.626065,-0.476064 1.071298,1.661219 2.266508,0.60529 1.5192,-1.342165 -0.312523,-0.814421 -1.011382,-1.163692 -1.600243,-0.799758 -0.678607,0.419403 -0.801364,0.251223 -0.349864,-0.479321 0.882076,-1.427229 2.684945,0.285799 3.639834,3.458453 0.542981,1.804072 0.393683,2.062612 -0.903615,1.564793 -1.125797,-0.432008 -1.415071,-0.234136 -1.049694,0.718021 0.339713,0.885277 0.07528,1.149713 -0.81,0.81 -0.817379,-0.313658 -1.196133,-0.04109 -1.001672,0.720834 0.171986,0.673864 0.14283,0.921457 -0.06479,0.550207 -0.207622,-0.37125 -1.052495,-0.668798 -1.877495,-0.661219 -1.297352,0.01192 -1.317617,0.131647 -0.15,0.886219 0.7425,0.47984 0.90652,0.878638 0.364489,0.886218 -0.542031,0.0076 -1.655781,-0.726858 -2.475,-1.632085 z M 34.649999,61.199998 c -0.682237,-1.103883 0.212366,-2.7 1.513316,-2.7 0.566222,0 0.452644,0.62014 -0.278116,1.518508 -1.085328,1.33426 -1.038426,1.444711 0.386544,0.910308 0.974246,-0.365369 1.402207,-0.252981 1.071885,0.281492 -0.70705,1.144032 -1.983227,1.139147 -2.693629,-0.01031 z m -3.15,-1.532331 c 0,-1.038831 2.554092,-3.438523 3.055638,-2.87092 0.171678,0.194288 -0.445609,1.132862 -1.371749,2.085719 -0.926139,0.952858 -1.683889,1.306199 -1.683889,0.785201 z m 14.884186,-0.212355 c -0.287125,-0.464577 0.18383,-1.239713 1.046566,-1.722524 1.340663,-0.750273 1.140664,-0.988731 -1.376278,-1.640936 l -2.94489,-0.763098 2.651076,-1.00067 c 1.539913,-0.581252 3.162059,-0.676882 3.870208,-0.228159 0.871512,0.552238 0.577572,0.785534 -1.030869,0.818184 l -2.25,0.04567 2.130608,1.181292 c 1.834684,1.017222 1.920513,1.261914 0.617955,1.761752 -0.831958,0.319252 -1.260579,0.988319 -0.952491,1.486815 0.308087,0.498495 0.155159,0.906355 -0.339841,0.906355 -0.495,0 -1.13492,-0.380109 -1.422044,-0.844686 z m 3.624098,0.039 c -0.273871,-0.443132 0.0866,-1.030006 0.80105,-1.304166 0.866495,-0.332505 1.13237,-0.06425 0.798541,0.805695 -0.580146,1.511833 -0.909808,1.614564 -1.599591,0.498471 z M 38.699999,58.458877 c -0.985913,-0.667175 -0.621825,-0.750676 1.35,-0.309609 3.309235,0.740224 4.027602,1.255344 1.725,1.236948 -0.94875,-0.0076 -2.3325,-0.424882 -3.075,-0.927339 z m -8.1,-1.670279 c 0,-0.934597 1.711992,-2.287556 2.219105,-1.753722 0.164641,0.173317 -0.267304,0.83734 -0.959878,1.475606 -0.692575,0.638266 -1.259227,0.763418 -1.259227,0.278116 z m 4.965281,-1.538719 c -1.895018,-1.38567 -0.422237,-1.635362 2.618915,-0.444004 1.376408,0.539202 1.46147,0.784019 0.412298,1.186624 -0.727045,0.278994 -2.091091,-0.05519 -3.031213,-0.74262 z m -4.355613,-2.691432 c 0.405289,-1.056168 0.0302,-1.227455 -1.723853,-0.787214 -2.677843,0.672095 -4.072045,-1.705328 -2.276343,-3.881668 0.908874,-1.101528 0.912028,-1.459191 0.01553,-1.760926 -1.364973,-0.459409 -1.443076,-2.884958 -0.15226,-4.72864 0.74587,-1.065331 0.828832,-0.934866 0.393437,0.618706 -0.599665,2.139717 0.614268,4.806209 3.864492,8.488642 1.726934,1.956581 1.849483,2.446063 0.720834,2.879165 -0.942694,0.361746 -1.200931,0.107732 -0.841832,-0.828065 z m -2.694865,-3.227199 c -0.287304,-0.717959 -0.500565,-0.504698 -0.543751,0.543751 -0.03908,0.948749 0.173635,1.480311 0.472698,1.181249 0.299062,-0.299062 0.331036,-1.075312 0.07106,-1.725 z m 22.100564,3.9209 c -0.843549,-0.535501 -0.554938,-1.264882 1.125,-2.843101 1.242798,-1.167548 2.259632,-2.659717 2.259632,-3.315931 0,-0.656215 0.375304,-1.193118 0.834008,-1.193118 0.458705,0 1.019224,-0.70875 1.245599,-1.575 0.37107,-1.419943 0.421868,-1.425172 0.515992,-0.05312 0.05742,0.837037 -0.320265,1.784343 -0.839301,2.105126 -0.64615,0.399342 -0.614403,0.980022 0.100687,1.841653 1.748456,2.106761 0.286074,4.262573 -2.429204,3.581082 -1.892164,-0.474904 -2.250105,-0.316662 -1.81986,0.804537 0.612126,1.595174 0.556691,1.631358 -0.992553,0.647868 z m 3.999435,-3.9209 c -0.287304,-0.717959 -0.500565,-0.504698 -0.543751,0.543751 -0.03908,0.948749 0.173636,1.480311 0.472698,1.181249 0.299062,-0.299062 0.331037,-1.075312 0.07106,-1.725 z m 3.056249,1.44375 c 0.04318,-1.048448 0.256447,-1.261709 0.543751,-0.54375 0.259983,0.649688 0.228009,1.425938 -0.07106,1.725 -0.299063,0.299062 -0.511777,-0.2325 -0.472698,-1.18125 z M 22.208604,48.061217 c 0.458,-1.193531 -1.083329,-1.706062 -3.990279,-1.326867 -0.622421,0.08119 -1.791084,-0.221404 -2.597028,-0.672433 -1.027774,-0.575172 -0.179079,-0.788023 2.842093,-0.712791 3.383687,0.08426 4.47438,0.492597 5.085858,1.904067 0.659686,1.522748 0.715848,1.453624 0.368213,-0.453195 -0.22561,-1.2375 -0.07779,-3.6675 0.328496,-5.399999 0.637686,-2.719268 0.722652,-2.423203 0.621369,2.165154 -0.09349,4.235219 -0.424675,5.360069 -1.630012,5.536218 -0.974218,0.142373 -1.340406,-0.227889 -1.02871,-1.040154 z m 37.432273,-0.4373 c -0.269834,-1.031845 -0.739378,-1.47356 -1.043433,-0.981591 -0.304054,0.49197 -0.624622,-0.960638 -0.712373,-3.228018 -0.09868,-2.549854 -0.662886,-4.40419 -1.478982,-4.8609 -1.947059,-1.08963 -5.163581,-6.911647 -4.160884,-7.531349 0.470136,-0.290559 0.854793,0.09968 0.854793,0.867198 0,0.767519 0.81,1.901343 1.8,2.519607 0.99,0.618265 1.84037,1.735448 1.889712,2.482627 0.04934,0.747179 0.409567,0.346008 0.800499,-0.891492 0.637274,-2.017296 0.707701,-1.924216 0.680952,0.9 -0.01641,1.7325 0.255873,4.433593 0.605071,6.002429 0.569286,2.557613 0.931479,2.824174 3.504336,2.579048 l 2.86943,-0.273381 -2.501098,0.978867 c -1.45787,0.570574 -2.314296,1.465669 -2.053247,2.145952 0.246318,0.641896 0.220147,1.167084 -0.05816,1.167084 -0.278307,0 -0.726784,-0.844237 -0.996617,-1.876081 z M 14.939999,40.859999 c -0.320302,-0.834697 -0.379869,-1.720131 -0.132369,-1.967631 0.2475,-0.2475 0.712067,0.232934 1.032369,1.067631 0.320303,0.834696 0.37987,1.72013 0.13237,1.96763 -0.2475,0.2475 -0.712067,-0.232934 -1.03237,-1.06763 z m 52.259999,-0.06 c -0.860127,-0.860125 -0.739854,-2.099997 0.203709,-2.099997 0.442041,0 1.03683,0.6075 1.321754,1.35 0.526428,1.371848 -0.432269,1.843194 -1.525463,0.749999 z M 26.099999,37.804303 c 0,-0.551059 1.239544,-2.29621 2.754542,-3.878115 l 2.754541,-2.876189 -1.945136,3.377875 c -2.075387,3.604065 -3.563947,5.014304 -3.563947,3.376429 z m -5.730807,-1.097162 c 0.240371,-0.388928 1.020636,-0.707142 1.733923,-0.707142 0.713286,0 1.296884,0.318214 1.296884,0.707142 0,0.388929 -0.780266,0.707144 -1.733923,0.707144 -0.953658,0 -1.537255,-0.318215 -1.296884,-0.707144 z m 3.930807,-2.357142 c 0,-2.0625 0.423352,-3.75 0.940782,-3.75 0.595601,0 0.716903,1.238315 0.330606,3.375 -0.844384,4.67045 -1.271388,4.796396 -1.271388,0.375 z m 35.099999,2.357142 c 0,-0.388928 0.583598,-0.707142 1.296885,-0.707142 0.713286,0 1.493551,0.318214 1.733922,0.707142 0.240371,0.388929 -0.343226,0.707144 -1.296884,0.707144 -0.953657,0 -1.733923,-0.318215 -1.733923,-0.707144 z m -25.7157,-7.476466 c 0.953865,-0.721642 1.954636,-1.091741 2.223936,-0.822442 0.564923,0.564923 -1.720887,2.171415 -3.058235,2.149362 -0.495,-0.0082 -0.119565,-0.605277 0.834299,-1.32692 z m 14.041764,0.504478 c -0.728164,-0.460506 -1.103599,-1.057619 -0.834299,-1.32692 0.2693,-0.269299 1.270071,0.1008 2.223936,0.822442 1.897537,1.435575 0.744512,1.854156 -1.389637,0.504478 z m -27.09418,-2.510154 -2.181883,-2.475 2.475,2.181883 c 2.31326,2.039298 2.887729,2.768117 2.181883,2.768117 -0.161215,0 -1.274964,-1.11375 -2.475,-2.475 z m 17.168117,0.740992 c 0,-0.458705 -0.70875,-1.019224 -1.575,-1.245599 -1.185219,-0.30973 -1.073853,-0.437427 0.45,-0.515992 1.2464,-0.06426 2.025,0.414665 2.025,1.245599 0,0.7425 -0.2025,1.35 -0.45,1.35 -0.2475,0 -0.45,-0.375304 -0.45,-0.834008 z m 6.313781,-0.290992 c -0.0093,-1.05815 0.650741,-1.551684 2.011218,-1.503948 1.353098,0.04748 1.577066,0.241567 0.675,0.58495 -0.7425,0.282644 -1.647548,0.95942 -2.011218,1.503948 -0.407851,0.61068 -0.666499,0.386537 -0.675,-0.58495 z m 17.536218,-0.675 c 0.895937,-0.99 1.831477,-1.8 2.078977,-1.8 0.2475,0 -0.28304,0.81 -1.178977,1.8 -0.895938,0.99 -1.831478,1.8 -2.078978,1.8 -0.2475,0 0.28304,-0.81 1.178978,-1.8 z M 49.928569,26.442856 c 0.801429,-0.801429 1.729878,-1.184407 2.063222,-0.851064 0.333343,0.333343 0.01031,0.982855 -0.717857,1.443361 -2.126214,1.344659 -2.928926,0.991265 -1.345365,-0.592297 z M 21.165277,25.216881 c -2.10025,-2.32075 -0.391229,-5.022248 2.274607,-3.595536 1.003788,0.53721 1.852989,0.556497 2.166515,0.0492 0.2836,-0.458875 -0.198071,-1.02049 -1.070381,-1.248032 -1.273233,-0.332123 -1.208392,-0.434302 0.328781,-0.518114 2.407619,-0.131271 4.537025,2.117421 2.939845,3.104532 -0.686443,0.424245 -0.847709,0.288861 -0.440588,-0.369876 0.353196,-0.571483 0.237174,-1.039059 -0.257826,-1.039059 -0.495,0 -1.154387,0.411606 -1.465304,0.914681 -0.310917,0.503074 -0.899881,0.7079 -1.308809,0.455169 -0.921576,-0.569565 -2.024769,2.090319 -1.331922,3.211368 0.886069,1.43369 -0.164308,0.881668 -1.834918,-0.964336 z m 1.334722,-2.319997 c 0,-0.771713 -0.411606,-1.148729 -0.914681,-0.837812 -0.503073,0.310918 -0.681672,0.942319 -0.396884,1.403115 0.771516,1.24834 1.311565,1.01557 1.311565,-0.565303 z m 8.1,3.15 c 0,-0.524213 0.405,-0.702812 0.9,-0.396885 0.495,0.305927 0.9,0.734828 0.9,0.953115 0,0.218287 -0.405,0.396885 -0.9,0.396885 -0.495,0 -0.9,-0.428902 -0.9,-0.953115 z m 29.098214,0.359333 c 0.760321,-1.306085 -0.224874,-4.057775 -1.230332,-3.436368 -0.408929,0.252731 -1.036566,-0.01467 -1.394752,-0.594227 -0.358186,-0.579556 -0.265584,-0.815386 0.205782,-0.524066 0.471366,0.291321 1.445192,0.136439 2.164058,-0.344181 0.963645,-0.644275 0.597682,-0.80601 -1.392971,-0.615615 -1.673544,0.160065 -2.605984,0.711361 -2.452701,1.450136 0.136015,0.655543 -0.187402,0.923237 -0.718703,0.594875 -1.66454,-1.028742 1.001173,-3.252903 3.544368,-2.957274 1.901522,0.221039 2.269884,0.674224 2.014485,2.478363 -0.273474,1.931818 -0.132818,2.058696 1.125,1.014801 2.198237,-1.824376 1.71073,0.308752 -0.517154,2.262849 -1.075088,0.942969 -1.681274,1.244787 -1.34708,0.670707 z M 38.866817,25.357232 c -0.650749,-0.431959 -2.068249,-0.699793 -3.15,-0.595189 -1.124167,0.108706 -1.292036,0.02365 -0.391818,-0.198523 0.86625,-0.213792 1.575,-0.794473 1.575,-1.290403 0,-0.495929 0.636428,-0.26526 1.414286,0.512596 0.777856,0.777857 2.166427,1.414286 3.085714,1.414286 0.919286,0 2.307857,-0.636429 3.085713,-1.414286 0.777858,-0.777856 1.414286,-1.008525 1.414286,-0.512596 0,0.49593 0.91125,1.084157 2.025,1.307173 1.559783,0.312329 1.40471,0.419023 -0.675,0.46442 -1.485,0.03242 -3.7125,0.292703 -4.95,0.578418 -1.237499,0.285716 -2.782431,0.166062 -3.433181,-0.265896 z m -7.816818,-1.957233 c 0.305927,-0.495 0.734828,-0.9 0.953115,-0.9 0.218287,0 0.396885,0.405 0.396885,0.9 0,0.495 -0.428902,0.9 -0.953115,0.9 -0.524214,0 -0.702812,-0.405 -0.396885,-0.9 z m 3.256085,-0.81539 c -0.972238,-0.615762 -0.810598,-0.925357 0.740089,-1.417526 1.376961,-0.43703 1.810088,-1.086722 1.415594,-2.123391 -0.469628,-1.234107 -0.363632,-1.287652 0.60991,-0.308104 0.971615,0.977607 0.904482,1.387923 -0.382689,2.338989 -0.858556,0.63437 -1.297306,1.417105 -0.975,1.739411 0.827417,0.827418 0.06441,0.703107 -1.407904,-0.229379 z m 12.892001,-6.13e-4 c 0.270366,-0.437461 -0.113599,-1.027611 -0.853256,-1.311444 -0.739657,-0.283833 -1.338629,-1.035021 -1.331049,-1.669306 0.0093,-0.778555 0.228613,-0.835845 0.675,-0.17633 0.36367,0.537304 1.414299,1.388213 2.33473,1.890907 1.512418,0.826008 1.529577,0.969225 0.178257,1.487775 -0.822391,0.31558 -1.274048,0.21586 -1.003682,-0.221602 z m -8.974379,-7.32654 c -0.645186,-1.043931 0.515036,-1.489275 3.626292,-1.391932 1.485,0.04646 2.603466,0.481991 2.48548,0.967843 -0.262643,1.081529 -5.481637,1.44367 -6.111772,0.424089 z"
       id="path4140"
       inkscape:connector-curvature="0" />
  </g>
</svg>
