<svg width="20" height="25" version="1.1" viewBox="0 0 5.2916665 6.6145835" xmlns="http://www.w3.org/2000/svg" xmlns:xlink="http://www.w3.org/1999/xlink">
    <defs>
        <linearGradient id="linearGradient843" x1="5.3253002" x2="5.3253002" y1="1.0956483e-7" y2="6.6145835" gradientUnits="userSpaceOnUse">
            <stop stop-opacity="0" offset="0"/>
            <stop stop-opacity=".03137255" offset="1"/>
        </linearGradient>
    </defs>
    <path class="color" d="m2.6458353 1.333333e-8c-1.1871199 1.0310708-2.4738383 2.0425694-2.6282633 3.6788452a2.6458333 2.6458333 0 0 0-0.012402 0.1891359c-0.00106 0.026869-0.00471 0.052379-0.00517 0.079582h0.00103a2.6458333 2.6458333 0 0 0-0.001028 0.0211869 2.6458333 2.6458333 0 0 0 2.6458333 2.6458333 2.6458333 2.6458333 0 0 0 2.6458334-2.6458333 2.6458333 2.6458333 0 0 0-5.292e-4 -0.0211878h5.292e-4c-1.54e-4 -0.00918-0.00132-0.01773-0.00156-0.026872a2.6458333 2.6458333 0 0 0-0.0139526-0.2103228c-0.1409096-1.6545983-1.4357008-2.6727825-2.6303208-3.7103674z" fill="#fff"/>
    <path class="color" d="m2.6458354 2.1333333e-7c-1.18712 1.0310708-2.4738384 2.0425694-2.6282634 3.6788452a2.6458333 2.6458333 0 0 0-0.012402 0.1891358c-0.00106 0.026869-0.00471 0.052379-0.00517 0.079582h0.00103a2.6458333 2.6458333 0 0 0-0.00103 0.021187 2.6458333 2.6458333 0 0 0 2.6458334 2.6458333 2.6458333 2.6458333 0 0 0 2.6458334-2.6458333 2.6458333 2.6458333 0 0 0-5.292e-4 -0.021188h5.292e-4c-1.54e-4 -0.00918-0.00132-0.01773-0.00156-0.026872a2.6458333 2.6458333 0 0 0-0.0139506-0.2103226c-0.1409096-1.6545983-1.4357008-2.6727825-2.6303208-3.7103674z" fill="url(#linearGradient843)"/>
    <path d="m2.6458419 0.17555584c-1.1267637 0.98308516-2.3480615 1.9475088-2.4946351 3.5076326a2.5113117 2.5226969 0 0 0-0.0117714 0.1803335c-0.001007 0.025618-0.004471 0.049942-0.004907 0.075878h9.7763e-4a2.5113117 2.5226969 0 0 0-9.7596e-4 0.0202007 2.5113117 2.5226969 0 0 0 2.5113118 2.5226968 2.5113117 2.5226969 0 0 0 2.5113119-2.5226968 2.5113117 2.5226969 0 0 0-5.023e-4 -0.0202012h5.023e-4c-1.461e-4 -0.00875-0.00125-0.016906-0.00148-0.02562a2.5113117 2.5226969 0 0 0-0.0132435-0.2005359c-0.1337457-1.5775936-1.3627061-2.5483917-2.4965884-3.5376877z" fill="none" stroke="#000" stroke-opacity=".16862746" stroke-width=".26457185"/>
</svg>
