<svg width="20" height="24" version="1.1" viewBox="0 0 5.2916665 6.3500002" xmlns="http://www.w3.org/2000/svg" xmlns:xlink="http://www.w3.org/1999/xlink">
    <defs>
        <linearGradient id="linearGradient857" x2="-3.9047292e-16" y2="6.3769069" gradientTransform="matrix(-1,0,0,1,5.291665,0)" gradientUnits="userSpaceOnUse">
            <stop stop-opacity="0" offset="0"/>
            <stop stop-opacity=".03137255" offset="1"/>
        </linearGradient>
    </defs>
    <path class="color" d="m5.2916671 0v3.7713456h-0.0025811a2.6429941 2.6458332 0 0 1-2.6404131 2.5786543 2.6429941 2.6458332 0 0 1-2.6393808-2.578654h-0.0092899978c0.0014543978-1.6393574 1.0264276-3.6123486 5.291665-3.7713459z" fill="#fff"/>
    <path class="color" d="M 5.291665,0 V 3.7713457 H 5.289085 A 2.6429941,2.6458332 0 0 1 2.6486708,6.35 2.6429941,2.6458332 0 0 1 0.00929,3.771346 H 0 C 0.00145,2.1319885 1.0264277,0.1589973 5.291665,0 Z" fill="url(#linearGradient857)"/>
    <path d="m5.1593811 0.13734979v3.611205h-0.00245a2.5107907 2.533485 0 0 1-2.5083407 2.4691592 2.5107907 2.533485 0 0 1-2.507358-2.4691582h-0.00883c0.0013822-1.5697469 0.97508995-3.4589601 5.0269786-3.611206z" fill="none" stroke="#000" stroke-opacity=".16862745" stroke-width=".26457185"/>
</svg>
