<?xml version="1.0" encoding="UTF-8" standalone="no"?>
<!-- Created with Inkscape (http://www.inkscape.org/) -->

<svg
   xmlns:dc="http://purl.org/dc/elements/1.1/"
   xmlns:cc="http://creativecommons.org/ns#"
   xmlns:rdf="http://www.w3.org/1999/02/22-rdf-syntax-ns#"
   xmlns:svg="http://www.w3.org/2000/svg"
   xmlns="http://www.w3.org/2000/svg"
   xmlns:sodipodi="http://sodipodi.sourceforge.net/DTD/sodipodi-0.dtd"
   xmlns:inkscape="http://www.inkscape.org/namespaces/inkscape"
   id="svg8116"
   version="1.1"
   inkscape:version="0.91 r13725"
   width="21"
   height="21"
   viewBox="0 0 21 21"
   sodipodi:docname="close-icon.svg">
  <metadata
     id="metadata8122">
    <rdf:RDF>
      <cc:Work
         rdf:about="">
        <dc:format>image/svg+xml</dc:format>
        <dc:type
           rdf:resource="http://purl.org/dc/dcmitype/StillImage" />
        <dc:title></dc:title>
      </cc:Work>
    </rdf:RDF>
  </metadata>
  <defs
     id="defs8120" />
  <sodipodi:namedview
     pagecolor="#ffffff"
     bordercolor="#666666"
     borderopacity="1"
     objecttolerance="10"
     gridtolerance="10"
     guidetolerance="10"
     inkscape:pageopacity="0"
     inkscape:pageshadow="2"
     inkscape:window-width="1366"
     inkscape:window-height="706"
     id="namedview8118"
     showgrid="false"
     inkscape:zoom="5.6568542"
     inkscape:cx="34.474151"
     inkscape:cy="33.438455"
     inkscape:window-x="0"
     inkscape:window-y="38"
     inkscape:window-maximized="1"
     inkscape:current-layer="svg8116" />
  <path
     style="fill:#d03233;fill-opacity:1"
     d="m 2.8835836,16.931307 0,-1.317678 2.500925,-2.49154 c 1.3755087,-1.370348 2.5009249,-2.608306 2.5009249,-2.751018 0,-0.142712 -1.1254162,-1.38067 -2.5009249,-2.751017 l -2.500925,-2.491541 0,-1.317678 0,-1.317678 1.0588091,0 c 1.0120035,0 1.1778376,0.11866 3.7513874,2.68423 l 2.6925779,2.684229 2.692579,-2.684229 c 2.663259,-2.655001 2.705469,-2.68423 3.876433,-2.68423 l 1.183856,0 0,1.308902 0,1.308902 -2.626164,2.634332 -2.626163,2.634332 2.626163,2.617226 2.626164,2.617226 0,1.317454 0,1.317454 -1.091859,0 c -1.045584,0 -1.21063,-0.11301 -3.894257,-2.666462 l -2.802398,-2.666461 -2.674755,2.666461 c -2.5554076,2.547484 -2.7219992,2.666462 -3.7335643,2.666462 l -1.0588091,0 0,-1.317678 z"
     id="path8134"
     inkscape:connector-curvature="0" />
  <path
     style="fill:#d03233;fill-opacity:1"
     d="m 2.6334911,16.931307 0,-1.56777 2.5011361,-2.491751 2.5011357,-2.491751 -2.5011357,-2.509677 -2.5011361,-2.509677 0,-1.558808 0,-1.558808 1.3087153,0 1.3087155,0 2.5677182,2.55898 2.5677179,2.558979 2.567719,-2.558979 2.567718,-2.55898 1.433762,0 1.433761,0 0,1.56777 0,1.56777 -2.501136,2.491751 -2.501135,2.491751 2.501135,2.509677 2.501136,2.509677 0,1.558808 0,1.558808 -1.308901,0 -1.308902,0 -2.634332,-2.626163 -2.634332,-2.626164 -2.6172259,2.626164 -2.617226,2.626163 -1.317454,0 -1.317454,0 0,-1.56777 z m 4.7871428,-1.558386 c 1.4166299,-1.444284 2.7416911,-2.625971 2.9445801,-2.625971 0.202889,0 1.568057,1.181687 3.033706,2.625971 2.403096,2.368065 2.754456,2.625971 3.577515,2.625971 0.907634,0 0.912698,-0.0059 0.912698,-1.067361 0,-1.022491 -0.110394,-1.17738 -2.625971,-3.684396 -1.444284,-1.439369 -2.625971,-2.733598 -2.625971,-2.876064 0,-0.142466 1.181687,-1.436695 2.625971,-2.876064 2.515577,-2.507016 2.625971,-2.661905 2.625971,-3.684396 l 0,-1.067361 -0.942315,0 c -0.863702,0 -1.160644,0.219074 -3.55935,2.625971 -1.439368,1.444284 -2.733597,2.625971 -2.876063,2.625971 -0.142466,0 -1.4366951,-1.181687 -2.876064,-2.625971 C 5.2366356,2.962324 4.9396931,2.74325 4.0759914,2.74325 l -0.9423153,0 0,1.067585 c 0,1.019444 0.1127767,1.179939 2.500925,3.559126 1.3755087,1.370347 2.5009249,2.649142 2.5009249,2.841765 0,0.192623 -1.1254162,1.518671 -2.5009249,2.946773 -2.4103052,2.502464 -2.500925,2.637201 -2.500925,3.718471 0,1.110551 0.00867,1.121922 0.8556337,1.121922 0.7562547,0 1.1547914,-0.304998 3.4313241,-2.625971 z"
     id="path8130"
     inkscape:connector-curvature="0" />
</svg>
