<?xml version="1.0" encoding="UTF-8" standalone="no"?>
<!-- Created with Inkscape (http://www.inkscape.org/) -->

<svg
   xmlns:dc="http://purl.org/dc/elements/1.1/"
   xmlns:cc="http://creativecommons.org/ns#"
   xmlns:rdf="http://www.w3.org/1999/02/22-rdf-syntax-ns#"
   xmlns:svg="http://www.w3.org/2000/svg"
   xmlns="http://www.w3.org/2000/svg"
   xmlns:sodipodi="http://sodipodi.sourceforge.net/DTD/sodipodi-0.dtd"
   xmlns:inkscape="http://www.inkscape.org/namespaces/inkscape"
   id="svg2"
   version="1.1"
   inkscape:version="0.91 r13725"
   width="21"
   height="21"
   viewBox="0 0 21 21"
   sodipodi:docname="titlebutton-max-active.svg">
  <metadata
     id="metadata8">
    <rdf:RDF>
      <cc:Work
         rdf:about="">
        <dc:format>image/svg+xml</dc:format>
        <dc:type
           rdf:resource="http://purl.org/dc/dcmitype/StillImage" />
        <dc:title></dc:title>
      </cc:Work>
    </rdf:RDF>
  </metadata>
  <defs
     id="defs6" />
  <sodipodi:namedview
     pagecolor="#ffffff"
     bordercolor="#666666"
     borderopacity="1"
     objecttolerance="10"
     gridtolerance="10"
     guidetolerance="10"
     inkscape:pageopacity="0"
     inkscape:pageshadow="2"
     inkscape:window-width="1366"
     inkscape:window-height="703"
     id="namedview4"
     showgrid="false"
     inkscape:zoom="2.8195939"
     inkscape:cx="-2.1279624"
     inkscape:cy="45.229491"
     inkscape:window-x="0"
     inkscape:window-y="38"
     inkscape:window-maximized="1"
     inkscape:current-layer="svg2" />
  <rect
     y="0"
     x="0"
     height="21"
     width="21"
     id="rect3347"
     style="fill:#7d7d7d;fill-opacity:0.29803922" />
  <path
     style="fill:#00c750;fill-opacity:1"
     d="m 2.7096775,10.5 0,-7.3387099 7.7903225,0 7.790322,0 0,7.3387099 0,7.33871 -7.790322,0 -7.7903225,0 0,-7.33871 z m 15.1290325,0 0,-6.8870969 -7.33871,0 -7.3387096,0 0,6.8870969 0,6.887097 7.3387096,0 7.33871,0 0,-6.887097 z m -14.0000004,0.564516 0,-5.4193549 6.6612904,0 6.66129,0 0,5.4193549 0,5.419355 -6.66129,0 -6.6612904,0 0,-5.419355 z m 12.8709684,0 0,-4.9677419 -6.209678,0 -6.2096775,0 0,4.9677419 0,4.967742 6.2096775,0 6.209678,0 0,-4.967742 z"
     id="path3340"
     inkscape:connector-curvature="0" />
  <path
     style="fill:#00c750;fill-opacity:1"
     d="m 2.935484,10.5 0,-7.1129029 7.564516,0 7.564516,0 0,7.1129029 0,7.112903 -7.564516,0 -7.564516,0 0,-7.112903 z m 14,0.564516 0,-5.1935479 -6.435484,0 -6.435484,0 0,5.1935479 0,5.193549 6.435484,0 6.435484,0 0,-5.193549 z"
     id="path3338"
     inkscape:connector-curvature="0" />
</svg>
