<?xml version="1.0" encoding="UTF-8" standalone="no"?>
<!-- Created with Inkscape (http://www.inkscape.org/) -->

<svg
   xmlns:dc="http://purl.org/dc/elements/1.1/"
   xmlns:cc="http://creativecommons.org/ns#"
   xmlns:rdf="http://www.w3.org/1999/02/22-rdf-syntax-ns#"
   xmlns:svg="http://www.w3.org/2000/svg"
   xmlns="http://www.w3.org/2000/svg"
   xmlns:sodipodi="http://sodipodi.sourceforge.net/DTD/sodipodi-0.dtd"
   xmlns:inkscape="http://www.inkscape.org/namespaces/inkscape"
   id="svg2"
   version="1.1"
   inkscape:version="0.91 r13725"
   width="21"
   height="21"
   viewBox="0 0 21 21"
   sodipodi:docname="titlebutton-min-active.svg">
  <metadata
     id="metadata8">
    <rdf:RDF>
      <cc:Work
         rdf:about="">
        <dc:format>image/svg+xml</dc:format>
        <dc:type
           rdf:resource="http://purl.org/dc/dcmitype/StillImage" />
        <dc:title></dc:title>
      </cc:Work>
    </rdf:RDF>
  </metadata>
  <defs
     id="defs6" />
  <sodipodi:namedview
     pagecolor="#ffffff"
     bordercolor="#666666"
     borderopacity="1"
     objecttolerance="10"
     gridtolerance="10"
     guidetolerance="10"
     inkscape:pageopacity="0"
     inkscape:pageshadow="2"
     inkscape:window-width="1366"
     inkscape:window-height="703"
     id="namedview4"
     showgrid="false"
     inkscape:zoom="6.117085"
     inkscape:cx="31.037791"
     inkscape:cy="24.53383"
     inkscape:window-x="0"
     inkscape:window-y="38"
     inkscape:window-maximized="1"
     inkscape:current-layer="svg2" />
  <rect
     y="0"
     x="0"
     height="21"
     width="21"
     id="rect3347"
     style="fill:#7d7d7d;fill-opacity:0.29803922" />
  <path
     style="fill:#ca651d;fill-opacity:1"
     d="m 2.9379157,10.830641 0,-2.1493589 7.8055673,0 7.805568,0 0,2.1493589 0,2.149359 -7.805568,0 -7.8055673,0 0,-2.149359 z m 15.1586383,0 0,-1.6968629 -7.353071,0 -7.3530707,0 0,1.6968629 0,1.696862 7.3530707,0 7.353071,0 0,-1.696862 z"
     id="path3344"
     inkscape:connector-curvature="0" />
  <path
     style="fill:#ca651d;fill-opacity:1"
     d="m 3.0133318,10.780363 0,-1.9482499 7.7050132,0 7.705013,0 0,1.9482499 0,1.94825 -7.705013,0 -7.7050132,0 0,-1.94825 z"
     id="path3338"
     inkscape:connector-curvature="0" />
</svg>
