/* XPM */
static char * bottom_left_active_xpm[] = {
"16 16 3 1",
"       s active_color_1",
"#      s active_color_1",
"@      s active_color_1",
"@               ",
"@               ",
"@               ",
"@               ",
"@               ",
"@               ",
"@               ",
"@               ",
"@               ",
"@               ",
"@               ",
"@               ",
"@               ",
"@               ",
"@               ",
"@@@@@@@@@@@@@@@@"};
